<svg width="50" height="50" viewBox="0 0 50 50" fill="none" xmlns="http://www.w3.org/2000/svg">
<g clip-path="url(#clip0)">
<path d="M41.6591 18.3791C39.3482 9.17331 30.0122 3.58388 20.8064 5.89476C13.6123 7.70072 8.38853 13.9185 7.8503 21.3162C2.74217 22.1586 -0.715946 26.9824 0.126442 32.0905C0.875286 36.6317 4.81021 39.9574 9.41263 39.9392H17.2243V36.8145H9.41263C5.96125 36.8145 3.16332 34.0166 3.16332 30.5652C3.16332 27.1138 5.96125 24.3159 9.41263 24.3159C10.2755 24.3159 10.975 23.6165 10.975 22.7536C10.9672 14.9879 17.2562 8.68625 25.0219 8.67854C31.7442 8.6718 37.5309 13.4242 38.8313 20.0195C38.9597 20.678 39.4941 21.1811 40.1593 21.2693C44.4305 21.8776 47.3998 25.8331 46.7916 30.1042C46.2455 33.9395 42.9709 36.7952 39.0969 36.8145H32.8476V39.9392H39.0969C45.1368 39.9209 50.0183 35.0097 50 28.9698C49.9848 23.942 46.5433 19.5723 41.6591 18.3791Z" fill="#F3F3F3"/>
<path d="M23.9267 20.7991L17.6774 27.0484L19.8803 29.2513L23.4737 25.6735V40.6563H26.5983V25.6735L30.1761 29.2513L32.3789 27.0484L26.1296 20.7991C25.5202 20.1933 24.5361 20.1933 23.9267 20.7991Z" fill="#F3F3F3"/>
</g>
<defs>
<clipPath id="clip0">
<rect width="50" height="50" fill="white"/>
</clipPath>
</defs>
</svg>
