<svg aria-hidden="true" style="position:absolute;width:0;height:0" xmlns="http://www.w3.org/2000/svg" overflow="hidden"><defs><symbol id="icon-arrow" viewBox="0 0 100 32"><path fill="var(--color1, #ff5c66)" d="M97.414 17.414a2 2 0 000-2.828L84.686 1.858a2 2 0 10-2.828 2.828L93.172 16 81.858 27.314a2 2 0 102.828 2.828l12.728-12.728zM0 18h96v-4H0v4z"/></symbol><symbol id="icon-behance" viewBox="0 0 32 32"><path d="M13.165 15.041c.664-.334 1.166-.706 1.51-1.108.612-.724.914-1.684.914-2.874 0-1.158-.302-2.148-.906-2.978-1.008-1.352-2.714-2.044-5.126-2.08H0v19.508h8.911c1.004 0 1.934-.086 2.794-.262.86-.178 1.604-.504 2.234-.98a5.409 5.409 0 001.4-1.534c.588-.916.882-1.954.882-3.11 0-1.12-.258-2.074-.77-2.858-.518-.784-1.278-1.358-2.286-1.722zM3.942 9.389h4.304c.946 0 1.726.102 2.338.304.708.294 1.062.892 1.062 1.804 0 .818-.27 1.39-.804 1.712-.538.322-1.236.484-2.092.484H3.942V9.389zm6.807 12.391c-.476.23-1.146.344-2.004.344H3.943v-5.202h4.868c.848.006 1.508.118 1.98.328.84.38 1.258 1.076 1.258 2.094 0 1.2-.432 2.008-1.3 2.436zM28.925 6.91H20.45v2.428h8.475V6.91zM31.869 16.493c-.176-1.13-.564-2.124-1.168-2.982-.662-.972-1.502-1.684-2.524-2.134-1.018-.452-2.164-.678-3.44-.676-2.142 0-3.882.67-5.228 2-1.342 1.334-2.014 3.252-2.014 5.752 0 2.666.742 4.593 2.234 5.774 1.486 1.184 3.202 1.774 5.15 1.774 2.358 0 4.192-.702 5.502-2.102.838-.884 1.312-1.754 1.416-2.608h-3.904c-.226.422-.488.752-.788.992-.544.44-1.252.66-2.12.66-.826 0-1.526-.182-2.11-.544-.964-.58-1.468-1.596-1.532-3.042h10.655c.016-1.246-.024-2.204-.128-2.864zm-10.431.375c.14-.938.48-1.682 1.02-2.232.54-.548 1.304-.824 2.282-.826.902 0 1.656.258 2.27.776.606.522.948 1.28 1.018 2.282h-6.59z"/></symbol><symbol id="icon-bookmark" viewBox="0 0 19 32"><path fill="var(--color2, #5551f7)" d="M0 31.594V.661h19.2v30.933l-9.6-9.6-9.6 9.6z"/></symbol><symbol id="icon-cloud-computing" viewBox="0 0 32 32"><path d="M26.662 11.763c-1.479-5.892-7.454-9.469-13.346-7.99a11 11 0 00-8.292 9.87 6 6 0 001 11.919h4.999v-2H6.024a4 4 0 010-8 1 1 0 001-1 8.999 8.999 0 0117.828-1.75 1 1 0 00.85.8 5 5 0 01-.68 9.949h-4v2h4a6.999 6.999 0 001.64-13.798z"/><path d="M15.313 13.311l-4 4 1.41 1.41 2.3-2.29v9.589h2v-9.589l2.29 2.29 1.41-1.41-4-4a1 1 0 00-1.41 0z"/></symbol><symbol id="icon-dribbble-logo" viewBox="0 0 32 32"><path d="M29.855 7.969c-1.431-2.451-3.372-4.392-5.823-5.823S18.904 0 16.001 0c-2.903 0-5.58.715-8.031 2.146S3.578 5.517 2.147 7.969C.716 10.421.001 13.098.001 16s.715 5.58 2.146 8.031c1.431 2.451 3.372 4.392 5.823 5.823S13.099 32 16.001 32c2.903 0 5.58-.715 8.031-2.146s4.392-3.372 5.823-5.823c1.431-2.452 2.146-5.129 2.146-8.031s-.715-5.58-2.145-8.031zM16 2.333c3.444 0 6.451 1.139 9.021 3.417l-.26.364c-.104.146-.365.427-.781.844s-.872.813-1.365 1.188-1.163.802-2.011 1.281-1.75.9-2.709 1.261C16.298 7.743 14.59 5.09 12.77 2.73a13.775 13.775 0 013.229-.396zM5.292 7.52a13.486 13.486 0 014.875-3.875c1.722 2.292 3.416 4.917 5.083 7.875-4.222 1.111-8.43 1.667-12.625 1.667A13.518 13.518 0 015.292 7.52zM3.25 20.927A13.407 13.407 0 012.333 16c0-.195.007-.34.021-.438 5.028 0 9.702-.646 14.021-1.938.445.861.813 1.632 1.104 2.313-.056.028-.146.059-.271.094s-.215.059-.271.073l-.771.271c-.528.195-1.219.528-2.073 1s-1.76 1.035-2.719 1.688c-.958.653-1.948 1.518-2.969 2.594s-1.878 2.232-2.573 3.468a13.684 13.684 0 01-2.583-4.198zM16 29.667c-3.25 0-6.153-1.042-8.709-3.125l.313.229c.486-1.07 1.201-2.098 2.146-3.083s1.854-1.782 2.729-2.386a26.778 26.778 0 012.854-1.708c1.028-.534 1.729-.875 2.104-1.02s.674-.261.896-.344l.041-.021h.042c1.361 3.569 2.333 7.028 2.917 10.375A13.666 13.666 0 0116 29.668zm11.501-6.281a13.659 13.659 0 01-3.854 3.948c-.57-3.194-1.458-6.452-2.667-9.771 2.764-.431 5.604-.229 8.521.604a13.476 13.476 0 01-2 5.219zm1.958-7.573c-.139-.028-.313-.059-.521-.094l-.761-.125c-.298-.049-.632-.094-1-.135s-.76-.08-1.177-.114a34.039 34.039 0 00-2.771-.114c-.486 0-.997.014-1.531.042s-1.052.077-1.552.146c-.042-.07-.094-.184-.156-.344s-.108-.281-.135-.365c-.264-.583-.57-1.243-.918-1.979.958-.389 1.872-.837 2.74-1.344s1.562-.958 2.083-1.354c.521-.396 1.014-.816 1.479-1.261s.767-.753.906-.927c.139-.174.271-.344.396-.51l.021-.021c2.028 2.472 3.063 5.319 3.104 8.542l-.209-.042z"/></symbol><symbol id="icon-instagram" viewBox="0 0 32 32"><path d="M31.968 9.408c-.075-1.7-.35-2.869-.744-3.882a7.803 7.803 0 00-1.85-2.838A7.867 7.867 0 0026.542.844C25.523.45 24.36.175 22.66.1 20.947.019 20.403 0 16.059 0s-4.888.019-6.595.094c-1.7.075-2.869.35-3.882.744a7.803 7.803 0 00-2.838 1.85A7.867 7.867 0 00.9 5.52C.506 6.539.231 7.702.156 9.402c-.081 1.713-.1 2.257-.1 6.601s.019 4.888.094 6.595c.075 1.7.35 2.869.744 3.882a7.895 7.895 0 001.85 2.838 7.867 7.867 0 002.832 1.844c1.019.394 2.182.669 3.882.744 1.706.075 2.25.094 6.595.094s4.888-.019 6.595-.094c1.7-.075 2.869-.35 3.882-.744a8.181 8.181 0 004.682-4.682c.394-1.019.669-2.182.744-3.882.075-1.707.094-2.25.094-6.595s-.006-4.888-.081-6.595zm-2.881 13.065c-.069 1.563-.331 2.407-.55 2.969a5.31 5.31 0 01-3.038 3.038c-.563.219-1.413.481-2.969.55-1.688.075-2.194.094-6.464.094s-4.782-.019-6.464-.094c-1.563-.069-2.407-.331-2.969-.55a4.926 4.926 0 01-1.838-1.194 4.974 4.974 0 01-1.194-1.838c-.219-.563-.481-1.413-.55-2.969-.075-1.688-.094-2.194-.094-6.464s.019-4.782.094-6.464c.069-1.563.331-2.407.55-2.969a4.868 4.868 0 011.2-1.838A4.974 4.974 0 016.639 3.55c.563-.219 1.413-.481 2.969-.55 1.688-.075 2.194-.094 6.464-.094 4.276 0 4.782.019 6.464.094 1.563.069 2.407.331 2.969.55a4.914 4.914 0 011.838 1.194 4.974 4.974 0 011.194 1.838c.219.563.481 1.413.55 2.969.075 1.688.094 2.194.094 6.464s-.019 4.77-.094 6.458z"/><path d="M16.059 7.782c-4.538 0-8.22 3.682-8.22 8.22s3.682 8.22 8.22 8.22c4.539 0 8.22-3.682 8.22-8.22s-3.682-8.22-8.22-8.22zm0 13.553a5.333 5.333 0 010-10.664 5.333 5.333 0 010 10.664zM26.523 7.458a1.919 1.919 0 11-3.838 0 1.919 1.919 0 013.838 0z"/></symbol><symbol id="icon-line" viewBox="0 0 1152 32"><path fill="none" stroke="var(--color1, #ff5c66)" stroke-width="16" d="M0 16h1152"/></symbol><symbol id="icon-logo" viewBox="0 0 32 32"><path d="M4.886 7.327c-.08.231-.084.472-.098.706-.059.983.037 1.947.404 2.873.42 1.061 1.115 1.903 2.032 2.569.939.682 2.001 1.091 3.101 1.426 1.088.332 2.089.833 2.913 1.643.826.811 1.288 1.803 1.478 2.932.075.446.105.896.106 1.348 0 .054.001.109-.008.162-.029.177-.164.291-.322.276-.154-.014-.259-.131-.26-.314-.001-.38-.023-.757-.066-1.134-.196-1.713-1.082-2.951-2.588-3.762-.608-.327-1.259-.54-1.914-.747-1.396-.439-2.675-1.088-3.706-2.157-.937-.972-1.492-2.134-1.691-3.464a7.804 7.804 0 01.221-3.325l.021-.069c.04-.158.136-.261.301-.263.152-.002.237.104.284.238.13.37.302.722.484 1.068.081.155.167.306.252.459.194.351.536.49.889.602.647.205 1.317.275 1.99.328 1.027.081 2.056.064 3.085.08.797.012 1.514.317 2.194.708.613.353 1.172.78 1.684 1.268.057.054.123.099.175.156.081.09.141.072.223-.006a9.975 9.975 0 011.702-1.333c.845-.514 1.74-.834 2.748-.802.92.03 1.842-.002 2.76-.076.684-.055 1.365-.136 2.02-.36.394-.134.69-.362.882-.745.227-.452.469-.896.634-1.376.046-.135.141-.213.282-.212.152.001.239.102.285.237.15.441.233.898.285 1.358.118 1.034.056 2.055-.258 3.053-.512 1.631-1.56 2.826-3.014 3.687-.792.469-1.645.796-2.524 1.06-.924.278-1.792.67-2.537 1.301-.923.781-1.417 1.79-1.584 2.973a7.149 7.149 0 00-.073 1.17.755.755 0 01-.004.126c-.02.16-.136.27-.286.272a.281.281 0 01-.296-.279c-.037-1.564.281-3.016 1.361-4.22.722-.805 1.632-1.318 2.63-1.695.675-.255 1.381-.421 2.044-.717 1.273-.569 2.379-1.343 3.132-2.548.494-.79.759-1.657.844-2.584a7.948 7.948 0 00-.042-1.71c-.007-.059-.002-.121-.061-.189-.09.161-.189.309-.259.47-.278.636-.785.984-1.428 1.174-.679.201-1.378.284-2.08.339-1.027.08-2.056.065-3.085.079-.736.01-1.393.3-2.015.673a9.265 9.265 0 00-1.892 1.526c-.223.231-.348.232-.572.003-.678-.692-1.423-1.298-2.288-1.743-.553-.284-1.133-.468-1.763-.464-.831.006-1.661.01-2.491-.041-.841-.052-1.68-.122-2.495-.361-.625-.183-1.15-.489-1.429-1.116-.061-.137-.14-.266-.213-.397-.025-.046-.032-.105-.103-.137zM20.408 21.708l.001-2.637c0-.298.09-.385.39-.384 1.673.005 3.201 1.333 3.456 3.004.306 2.006-.965 3.787-2.964 4.155-1.982.364-3.971-1.127-4.171-3.129-.011-.114-.027-.227-.028-.341-.002-.234.114-.381.291-.383.184-.003.292.132.298.372a3.031 3.031 0 002.252 2.835 3.022 3.022 0 003.759-2.534c.21-1.581-.932-3.116-2.483-3.356-.19-.029-.21.035-.21.192.004 1.577.003 3.155.003 4.732 0 .066.003.133-.003.199-.017.198-.132.311-.308.307-.181-.004-.282-.112-.282-.323-.002-.902-.001-1.805-.001-2.708zM7.891 23.762c-.121.204-.223.413-.359.604a3.61 3.61 0 01-3.855 1.414 3.607 3.607 0 01-2.673-3.097c-.013-.119-.028-.24-.025-.359.004-.192.129-.328.289-.331.175-.004.288.124.3.334.061 1.16.584 2.041 1.599 2.615 1.733.981 4.053-.13 4.382-2.095.027-.161.038-.322.046-.484.012-.233.116-.36.292-.367.178-.007.295.103.307.347.023.445.11.87.309 1.27a3.026 3.026 0 003.01 1.673 3.028 3.028 0 002.674-2.526c.023-.142.034-.287.043-.431.013-.211.121-.338.297-.337.166.001.3.145.294.346a3.671 3.671 0 01-.203 1.132c-.545 1.543-2.028 2.542-3.658 2.414-1.32-.104-2.306-.767-2.948-1.931-.034-.061-.05-.135-.12-.191zM27.235 25.895c-.999-.036-1.981-.507-2.712-1.475-.067-.089-.119-.181-.101-.298s.082-.197.197-.234c.14-.045.251.006.333.116.173.233.36.452.592.628.915.697 1.923.877 2.991.45 1.108-.444 1.735-1.292 1.89-2.48.013-.101.021-.203.029-.305.014-.183.128-.303.291-.305.154-.002.289.127.295.306.008.235-.025.468-.07.698-.33 1.673-1.821 2.896-3.734 2.9z"/></symbol><symbol id="icon-logo-white" viewBox="0 0 32 32"><path fill="var(--color3, #fff)" d="M4.886 7.327c-.08.231-.084.472-.098.706-.059.983.037 1.947.404 2.873.42 1.061 1.115 1.903 2.032 2.569.939.682 2.001 1.091 3.101 1.426 1.088.332 2.089.833 2.913 1.643.826.811 1.288 1.803 1.478 2.932.075.446.105.896.106 1.348 0 .054.001.109-.008.162-.029.177-.164.291-.322.276-.154-.014-.259-.131-.26-.314-.001-.38-.023-.757-.066-1.134-.196-1.713-1.082-2.951-2.588-3.763-.608-.327-1.259-.54-1.914-.747-1.396-.439-2.675-1.088-3.706-2.157-.937-.972-1.492-2.134-1.691-3.464a7.804 7.804 0 01.221-3.325l.021-.069c.04-.158.136-.261.301-.263.152-.002.237.104.284.238.13.37.302.722.484 1.068.081.155.167.306.252.459.194.351.536.49.889.602.647.205 1.317.275 1.99.328 1.027.081 2.056.064 3.085.08.797.012 1.514.317 2.194.708.613.353 1.172.78 1.684 1.268.057.054.123.099.175.156.081.09.141.072.223-.006a9.975 9.975 0 011.702-1.333c.845-.514 1.74-.834 2.748-.802.92.03 1.842-.002 2.76-.076.684-.055 1.365-.136 2.02-.36.394-.134.69-.362.882-.745.227-.452.469-.896.634-1.376.046-.135.141-.213.282-.212.152.001.239.102.285.237.15.441.233.898.285 1.358.118 1.034.056 2.055-.258 3.053-.512 1.631-1.56 2.826-3.014 3.687-.792.469-1.645.796-2.524 1.06-.924.278-1.792.67-2.537 1.301-.923.781-1.417 1.79-1.584 2.973a7.149 7.149 0 00-.073 1.17.755.755 0 01-.004.126c-.02.16-.136.27-.286.272a.281.281 0 01-.296-.279c-.037-1.564.281-3.016 1.361-4.22.722-.805 1.632-1.318 2.63-1.695.675-.255 1.381-.421 2.044-.717 1.273-.569 2.379-1.343 3.132-2.548.494-.79.759-1.657.844-2.584a7.948 7.948 0 00-.042-1.71c-.007-.059-.002-.121-.061-.189-.09.161-.189.309-.259.47-.278.636-.785.984-1.428 1.174-.679.201-1.378.284-2.08.339-1.027.08-2.056.065-3.085.079-.736.01-1.393.3-2.015.673a9.265 9.265 0 00-1.892 1.526c-.223.231-.348.232-.572.003-.678-.692-1.423-1.298-2.288-1.743-.553-.284-1.133-.468-1.763-.464-.831.006-1.661.01-2.491-.041-.841-.052-1.68-.122-2.495-.361-.625-.183-1.15-.489-1.429-1.116-.061-.137-.14-.266-.213-.397-.025-.046-.032-.105-.103-.137zM20.408 21.708l.001-2.637c0-.298.09-.385.39-.384 1.673.005 3.201 1.333 3.456 3.004.306 2.006-.965 3.787-2.964 4.155-1.982.364-3.971-1.127-4.171-3.129-.011-.114-.027-.227-.028-.341-.002-.234.114-.381.291-.383.184-.003.292.132.298.372a3.031 3.031 0 002.252 2.835 3.022 3.022 0 003.759-2.534c.21-1.581-.932-3.116-2.483-3.356-.19-.029-.21.035-.21.192.004 1.577.003 3.155.003 4.732 0 .066.003.133-.003.199-.017.198-.132.311-.308.307-.181-.004-.282-.112-.282-.323-.002-.902-.001-1.805-.001-2.708zM7.891 23.762c-.121.204-.223.413-.359.604a3.61 3.61 0 01-3.855 1.414 3.607 3.607 0 01-2.673-3.097c-.013-.119-.028-.24-.025-.359.004-.192.129-.328.289-.331.175-.003.288.125.3.334.061 1.16.584 2.041 1.599 2.615 1.733.981 4.053-.13 4.382-2.095.027-.161.038-.322.046-.484.012-.233.116-.36.292-.367.178-.007.295.103.307.347.023.445.11.87.309 1.27a3.026 3.026 0 003.01 1.673 3.028 3.028 0 002.674-2.526c.023-.142.034-.287.043-.431.013-.211.121-.338.297-.337.166.001.3.145.294.346a3.671 3.671 0 01-.203 1.132c-.545 1.543-2.028 2.542-3.658 2.414-1.32-.104-2.306-.767-2.948-1.931-.034-.061-.05-.135-.12-.191zM27.235 25.895c-.999-.035-1.981-.507-2.712-1.475-.067-.089-.119-.181-.101-.298s.082-.197.197-.234c.14-.045.251.006.333.116.173.233.36.452.592.628.915.697 1.923.877 2.991.45 1.108-.444 1.735-1.292 1.89-2.48.013-.101.021-.203.029-.305.014-.183.128-.303.291-.305.154-.002.289.127.295.306.008.235-.025.468-.07.698-.33 1.673-1.821 2.896-3.734 2.899z"/></symbol><symbol id="icon-telegram" viewBox="0 0 32 32"><path fill="var(--color1, #ff5c66)" d="M12.556 20.241l-.529 7.445c.757 0 1.085-.325 1.479-.716l3.551-3.393 7.357 5.388c1.349.752 2.3.356 2.664-1.241l4.829-22.629.001-.001c.428-1.995-.721-2.775-2.036-2.285L1.485 13.677c-1.937.752-1.908 1.832-.329 2.321l7.257 2.257L25.27 7.707c.793-.525 1.515-.235.921.291L12.555 20.242z"/></symbol><symbol id="icon-tick-mark" viewBox="0 0 35 32"><path fill="none" stroke="var(--color4, #ff5f68)" stroke-width="5.333" d="M2.667 10.667l11.714 14.667L32.484 2.667"/></symbol><symbol id="icon-arrow-down" viewBox="0 0 57 32"><path fill="none" stroke="var(--color3, #fff)" stroke-width="3.556" d="M1.778 1.778l26.667 26.667L55.112 1.778"/></symbol><symbol id="icon-viber" viewBox="0 0 32 32"><path d="M30.872 18.524c.955-8.036-.459-13.109-3.008-15.404l.001-.001C23.75-.8 9.854-1.38 4.932 3.295c-2.211 2.287-2.989 5.643-3.075 9.797-.085 4.156-.187 11.941 7.068 14.053h.007l-.007 3.225s-.049 1.307.785 1.569c.955.309 1.387-.297 4.356-3.844 4.965.431 8.779-.556 9.212-.7 1.003-.336 6.676-1.087 7.593-8.872zm-16.316 7.303s-3.143 3.919-4.12 4.936c-.32.331-.671.3-.665-.356 0-.431.024-5.355.024-5.355-6.151-1.763-5.788-8.392-5.721-11.86.067-3.469.701-6.311 2.573-8.224 4.319-4.049 16.501-3.144 19.605-.227 3.795 3.364 2.444 12.868 2.452 13.192-.78 6.499-5.377 6.911-6.223 7.192-.361.12-3.715.983-7.925.701z"/><path d="M16.296 5.729c-.513 0-.513.8 0 .807 3.983.031 7.263 2.807 7.299 7.899 0 .537.787.531.78-.007h-.001c-.043-5.487-3.624-8.668-8.077-8.699z"/><path d="M21.534 13.591c-.012.531.773.556.78.019.065-3.025-1.8-5.517-5.305-5.78-.513-.037-.567.769-.055.807 3.04.231 4.641 2.305 4.58 4.955zM20.695 17.032c-.659-.381-1.329-.144-1.607.231l-.58.751c-.295.381-.845.331-.845.331-4.019-1.063-5.093-5.268-5.093-5.268s-.049-.569.319-.875l.725-.6c.363-.288.592-.981.223-1.663-.987-1.783-1.649-2.397-1.987-2.869-.355-.444-.888-.544-1.443-.244h-.012c-1.153.675-2.416 1.937-2.012 3.237.689 1.371 1.956 5.74 5.993 9.041 1.897 1.561 4.9 3.161 6.175 3.531l.012.019c1.256.419 2.477-.893 3.129-2.081v-.009c.289-.575.193-1.119-.229-1.475-.749-.731-1.88-1.537-2.768-2.056z"/><path d="M17.557 10.805c1.281.075 1.903.744 1.969 2.119.024.537.804.5.78-.037-.085-1.795-1.021-2.795-2.707-2.888-.513-.031-.561.776-.043.807z"/></symbol><symbol id="icon-whatsapp" viewBox="0 0 32 32"><path d="M26.612 5.344A14.771 14.771 0 0016.096.984C7.902.984 1.233 7.652 1.23 15.849a14.838 14.838 0 001.984 7.432l-2.109 7.703 7.881-2.067a14.858 14.858 0 007.104 1.81h.006c8.193 0 14.863-6.669 14.866-14.866a14.773 14.773 0 00-4.35-10.517zM16.096 28.216h-.005a12.35 12.35 0 01-6.289-1.722l-.451-.268-4.676 1.227 1.248-4.559-.294-.468A12.324 12.324 0 013.74 15.85C3.743 9.038 9.286 3.495 16.101 3.495c3.3.001 6.403 1.288 8.735 3.623s3.617 5.44 3.616 8.741c-.003 6.813-5.546 12.356-12.356 12.356zm6.777-9.254c-.371-.186-2.198-1.084-2.538-1.208s-.588-.186-.836.186-.959 1.209-1.176 1.456-.433.279-.805.093c-.372-.186-1.568-.578-2.987-1.844-1.104-.985-1.85-2.201-2.066-2.573s-.002-.554.163-.758c.402-.499.805-1.023.929-1.271s.062-.465-.031-.651-.835-2.014-1.145-2.758c-.302-.724-.608-.626-.836-.638-.216-.011-.464-.013-.712-.013s-.65.093-.991.465c-.34.372-1.3 1.27-1.3 3.099s1.331 3.595 1.517 3.842c.186.248 2.619 4 6.345 5.608.886.383 1.578.611 2.118.783.89.283 1.699.243 2.34.147.714-.107 2.197-.899 2.507-1.766s.309-1.611.216-1.766c-.093-.155-.34-.248-.712-.434z"/></symbol></defs></svg>