<!-- Generated by IcoMoon.io -->
<svg version="1.1" xmlns="http://www.w3.org/2000/svg" width="32" height="32" viewBox="0 0 32 32">
<title>behance</title>
<path d="M13.165 15.041c0.664-0.334 1.166-0.706 1.51-1.108 0.612-0.724 0.914-1.684 0.914-2.874 0-1.158-0.302-2.148-0.906-2.978-1.008-1.352-2.714-2.044-5.126-2.080h-9.557v19.508h8.911c1.004 0 1.934-0.086 2.794-0.262 0.86-0.178 1.604-0.504 2.234-0.98 0.56-0.414 1.028-0.928 1.4-1.534 0.588-0.916 0.882-1.954 0.882-3.11 0-1.12-0.258-2.074-0.77-2.858-0.518-0.784-1.278-1.358-2.286-1.722zM3.942 9.389h4.304c0.946 0 1.726 0.102 2.338 0.304 0.708 0.294 1.062 0.892 1.062 1.804 0 0.818-0.27 1.39-0.804 1.712-0.538 0.322-1.236 0.484-2.092 0.484h-4.808v-4.304zM10.749 21.78c-0.476 0.23-1.146 0.344-2.004 0.344h-4.802v-5.202h4.868c0.848 0.006 1.508 0.118 1.98 0.328 0.84 0.38 1.258 1.076 1.258 2.094 0 1.2-0.432 2.008-1.3 2.436z"></path>
<path d="M28.925 6.91h-8.475v2.428h8.475v-2.428z"></path>
<path d="M31.869 16.493c-0.176-1.13-0.564-2.124-1.168-2.982-0.662-0.972-1.502-1.684-2.524-2.134-1.018-0.452-2.164-0.678-3.44-0.676-2.142 0-3.882 0.67-5.228 2-1.342 1.334-2.014 3.252-2.014 5.752 0 2.666 0.742 4.593 2.234 5.774 1.486 1.184 3.202 1.774 5.15 1.774 2.358 0 4.192-0.702 5.502-2.102 0.838-0.884 1.312-1.754 1.416-2.608h-3.904c-0.226 0.422-0.488 0.752-0.788 0.992-0.544 0.44-1.252 0.66-2.12 0.66-0.826 0-1.526-0.182-2.11-0.544-0.964-0.58-1.468-1.596-1.532-3.042h10.655c0.016-1.246-0.024-2.204-0.128-2.864zM21.438 16.868c0.14-0.938 0.48-1.682 1.020-2.232 0.54-0.548 1.304-0.824 2.282-0.826 0.902 0 1.656 0.258 2.27 0.776 0.606 0.522 0.948 1.28 1.018 2.282h-6.59z"></path>
</svg>
