<!-- Generated by IcoMoon.io -->
<svg version="1.1" xmlns="http://www.w3.org/2000/svg" width="32" height="32" viewBox="0 0 32 32">
<title>cloud-computing</title>
<path d="M26.662 11.763c-1.479-5.892-7.454-9.469-13.346-7.99-4.604 1.156-7.947 5.135-8.292 9.87-3.269 0.539-5.482 3.626-4.943 6.896 0.479 2.906 2.998 5.035 5.943 5.023h4.999v-2h-4.999c-2.209 0-4-1.791-4-4s1.791-4 4-4c0.552 0 1-0.448 1-1-0.005-4.97 4.020-9.003 8.99-9.008 4.302-0.004 8.006 3.037 8.838 7.258 0.082 0.421 0.424 0.743 0.85 0.8 2.734 0.389 4.634 2.921 4.245 5.654-0.349 2.455-2.445 4.282-4.925 4.295h-4v2h4c3.866-0.012 6.99-3.155 6.978-7.020-0.010-3.218-2.212-6.014-5.338-6.778z"></path>
<path d="M15.313 13.311l-4 4 1.41 1.41 2.3-2.29v9.589h2v-9.589l2.29 2.29 1.41-1.41-4-4c-0.39-0.388-1.020-0.388-1.41 0z"></path>
</svg>
