<!-- Generated by IcoMoon.io -->
<svg version="1.1" xmlns="http://www.w3.org/2000/svg" width="32" height="32" viewBox="0 0 32 32">
<title>logo</title>
<path d="M4.886 7.327c-0.080 0.231-0.084 0.472-0.098 0.706-0.059 0.983 0.037 1.947 0.404 2.873 0.42 1.061 1.115 1.903 2.032 2.569 0.939 0.682 2.001 1.091 3.101 1.426 1.088 0.332 2.089 0.833 2.913 1.643 0.826 0.811 1.288 1.803 1.478 2.932 0.075 0.446 0.105 0.896 0.106 1.348 0 0.054 0.001 0.109-0.008 0.162-0.029 0.177-0.164 0.291-0.322 0.276-0.154-0.014-0.259-0.131-0.26-0.314-0.001-0.38-0.023-0.757-0.066-1.134-0.196-1.713-1.082-2.951-2.588-3.762-0.608-0.327-1.259-0.54-1.914-0.747-1.396-0.439-2.675-1.088-3.706-2.157-0.937-0.972-1.492-2.134-1.691-3.464-0.167-1.122-0.091-2.232 0.221-3.325 0.007-0.023 0.015-0.046 0.021-0.069 0.040-0.158 0.136-0.261 0.301-0.263 0.152-0.002 0.237 0.104 0.284 0.238 0.13 0.37 0.302 0.722 0.484 1.068 0.081 0.155 0.167 0.306 0.252 0.459 0.194 0.351 0.536 0.49 0.889 0.602 0.647 0.205 1.317 0.275 1.99 0.328 1.027 0.081 2.056 0.064 3.085 0.080 0.797 0.012 1.514 0.317 2.194 0.708 0.613 0.353 1.172 0.78 1.684 1.268 0.057 0.054 0.123 0.099 0.175 0.156 0.081 0.090 0.141 0.072 0.223-0.006 0.523-0.5 1.082-0.956 1.702-1.333 0.845-0.514 1.74-0.834 2.748-0.802 0.92 0.030 1.842-0.002 2.76-0.076 0.684-0.055 1.365-0.136 2.020-0.36 0.394-0.134 0.69-0.362 0.882-0.745 0.227-0.452 0.469-0.896 0.634-1.376 0.046-0.135 0.141-0.213 0.282-0.212 0.152 0.001 0.239 0.102 0.285 0.237 0.15 0.441 0.233 0.898 0.285 1.358 0.118 1.034 0.056 2.055-0.258 3.053-0.512 1.631-1.56 2.826-3.014 3.687-0.792 0.469-1.645 0.796-2.524 1.060-0.924 0.278-1.792 0.67-2.537 1.301-0.923 0.781-1.417 1.79-1.584 2.973-0.055 0.387-0.082 0.778-0.073 1.17 0.001 0.042 0.002 0.085-0.004 0.126-0.020 0.16-0.136 0.27-0.286 0.272-0.159 0.003-0.291-0.108-0.296-0.279-0.037-1.564 0.281-3.016 1.361-4.22 0.722-0.805 1.632-1.318 2.63-1.695 0.675-0.255 1.381-0.421 2.044-0.717 1.273-0.569 2.379-1.343 3.132-2.548 0.494-0.79 0.759-1.657 0.844-2.584 0.052-0.573 0.029-1.141-0.042-1.71-0.007-0.059-0.002-0.121-0.061-0.189-0.090 0.161-0.189 0.309-0.259 0.47-0.278 0.636-0.785 0.984-1.428 1.174-0.679 0.201-1.378 0.284-2.080 0.339-1.027 0.080-2.056 0.065-3.085 0.079-0.736 0.010-1.393 0.3-2.015 0.673-0.701 0.42-1.324 0.939-1.892 1.526-0.223 0.231-0.348 0.232-0.572 0.003-0.678-0.692-1.423-1.298-2.288-1.743-0.553-0.284-1.133-0.468-1.763-0.464-0.831 0.006-1.661 0.010-2.491-0.041-0.841-0.052-1.68-0.122-2.495-0.361-0.625-0.183-1.15-0.489-1.429-1.116-0.061-0.137-0.14-0.266-0.213-0.397-0.025-0.046-0.032-0.105-0.103-0.137z"></path>
<path d="M20.408 21.708c0-0.879-0-1.758 0.001-2.637 0-0.298 0.090-0.385 0.39-0.384 1.673 0.005 3.201 1.333 3.456 3.004 0.306 2.006-0.965 3.787-2.964 4.155-1.982 0.364-3.971-1.127-4.171-3.129-0.011-0.114-0.027-0.227-0.028-0.341-0.002-0.234 0.114-0.381 0.291-0.383 0.184-0.003 0.292 0.132 0.298 0.372 0.036 1.331 0.967 2.504 2.252 2.835 1.765 0.455 3.519-0.726 3.759-2.534 0.21-1.581-0.932-3.116-2.483-3.356-0.19-0.029-0.21 0.035-0.21 0.192 0.004 1.577 0.003 3.155 0.003 4.732 0 0.066 0.003 0.133-0.003 0.199-0.017 0.198-0.132 0.311-0.308 0.307-0.181-0.004-0.282-0.112-0.282-0.323-0.002-0.902-0.001-1.805-0.001-2.708z"></path>
<path d="M7.891 23.762c-0.121 0.204-0.223 0.413-0.359 0.604-0.883 1.233-2.396 1.79-3.855 1.414-1.44-0.371-2.504-1.603-2.673-3.097-0.013-0.119-0.028-0.24-0.025-0.359 0.004-0.192 0.129-0.328 0.289-0.331 0.175-0.004 0.288 0.124 0.3 0.334 0.061 1.16 0.584 2.041 1.599 2.615 1.733 0.981 4.053-0.13 4.382-2.095 0.027-0.161 0.038-0.322 0.046-0.484 0.012-0.233 0.116-0.36 0.292-0.367 0.178-0.007 0.295 0.103 0.307 0.347 0.023 0.445 0.11 0.87 0.309 1.27 0.612 1.233 1.881 1.79 3.010 1.673 1.346-0.139 2.448-1.161 2.674-2.526 0.023-0.142 0.034-0.287 0.043-0.431 0.013-0.211 0.121-0.338 0.297-0.337 0.166 0.001 0.3 0.145 0.294 0.346-0.011 0.387-0.073 0.766-0.203 1.132-0.545 1.543-2.028 2.542-3.658 2.414-1.32-0.104-2.306-0.767-2.948-1.931-0.034-0.061-0.050-0.135-0.12-0.191z"></path>
<path d="M27.235 25.895c-0.999-0.036-1.981-0.507-2.712-1.475-0.067-0.089-0.119-0.181-0.101-0.298s0.082-0.197 0.197-0.234c0.14-0.045 0.251 0.006 0.333 0.116 0.173 0.233 0.36 0.452 0.592 0.628 0.915 0.697 1.923 0.877 2.991 0.45 1.108-0.444 1.735-1.292 1.89-2.48 0.013-0.101 0.021-0.203 0.029-0.305 0.014-0.183 0.128-0.303 0.291-0.305 0.154-0.002 0.289 0.127 0.295 0.306 0.008 0.235-0.025 0.468-0.070 0.698-0.33 1.673-1.821 2.896-3.734 2.9z"></path>
</svg>
