<!-- Generated by IcoMoon.io -->
<svg version="1.1" xmlns="http://www.w3.org/2000/svg" width="32" height="32" viewBox="0 0 32 32">
<title>whatsapp</title>
<path d="M26.612 5.344c-2.807-2.81-6.539-4.358-10.516-4.36-8.194 0-14.863 6.668-14.866 14.865-0.001 2.62 0.683 5.178 1.984 7.432l-2.109 7.703 7.881-2.067c2.171 1.184 4.616 1.809 7.104 1.81h0.006c8.193 0 14.863-6.669 14.866-14.866 0.002-3.972-1.543-7.707-4.35-10.517zM16.096 28.216h-0.005c-2.217-0.001-4.391-0.597-6.289-1.722l-0.451-0.268-4.676 1.227 1.248-4.559-0.294-0.468c-1.237-1.967-1.89-4.241-1.889-6.576 0.003-6.812 5.546-12.355 12.361-12.355 3.3 0.001 6.403 1.288 8.735 3.623s3.617 5.44 3.616 8.741c-0.003 6.813-5.546 12.356-12.356 12.356zM22.873 18.962c-0.371-0.186-2.198-1.084-2.538-1.208s-0.588-0.186-0.836 0.186c-0.248 0.372-0.959 1.209-1.176 1.456s-0.433 0.279-0.805 0.093c-0.372-0.186-1.568-0.578-2.987-1.844-1.104-0.985-1.85-2.201-2.066-2.573s-0.002-0.554 0.163-0.758c0.402-0.499 0.805-1.023 0.929-1.271s0.062-0.465-0.031-0.651c-0.093-0.186-0.835-2.014-1.145-2.758-0.302-0.724-0.608-0.626-0.836-0.638-0.216-0.011-0.464-0.013-0.712-0.013s-0.65 0.093-0.991 0.465c-0.34 0.372-1.3 1.27-1.3 3.099s1.331 3.595 1.517 3.842c0.186 0.248 2.619 4 6.345 5.608 0.886 0.383 1.578 0.611 2.118 0.783 0.89 0.283 1.699 0.243 2.34 0.147 0.714-0.107 2.197-0.899 2.507-1.766s0.309-1.611 0.216-1.766c-0.093-0.155-0.34-0.248-0.712-0.434z"></path>
</svg>
